<svg width="32" height="32" viewBox="0 0 32 32" fill="none" xmlns="http://www.w3.org/2000/svg">
<rect width="32" height="32" rx="16" fill="white"/>
<path d="M25.2745 25.6609C24.9421 25.1005 24.6725 24.2187 24.4651 23.0145L21.6759 5.41389C21.6055 4.97036 21.0255 4.84726 20.7807 5.22374L19.7433 6.82162C19.5814 7.07117 19.5177 7.37149 19.5641 7.6651L21.1299 17.5283L21.3828 18.9987L21.4762 19.6525L21.7425 21.2495L22.0366 23.015C22.1818 23.7421 22.2546 24.2814 22.2546 24.6339C22.2546 24.883 22.2234 25.122 22.1612 25.35C22.0778 25.7447 21.8857 26.0661 21.5849 26.3156C21.2841 26.5647 20.8325 26.741 20.2309 26.8444L20.1997 27.0001H26.9869L27.018 26.8444C26.1875 26.6164 25.6065 26.2217 25.2745 25.6613V25.6609Z" fill="#121212"/>
<path d="M18.9165 22.3583C18.7412 22.0916 18.598 21.6705 18.4883 21.0977L16.9062 12.6121H14.6656L14.6493 12.6858C14.9012 12.7361 15.088 12.8003 15.2092 12.8793C15.3304 12.9584 15.3903 13.0628 15.3903 13.1911C15.3903 13.2501 15.385 13.2994 15.374 13.3392C15.3625 13.4086 15.3079 13.5427 15.2087 13.7396L13.0797 17.0077C13.0797 17.0077 12.5451 18.4403 14.5075 18.5131C16.6016 18.5902 16.8607 19.2819 16.8847 19.3681L16.8861 19.3729V19.3767L16.9053 19.495L16.9537 19.7565H16.9541L17.2022 21.0977C17.2784 21.4435 17.3172 21.7012 17.3172 21.8688C17.3172 21.9871 17.3004 22.1016 17.2679 22.2099C17.2238 22.3976 17.1223 22.5509 16.9628 22.6702C16.8037 22.7885 16.5647 22.8728 16.2462 22.9221L16.2294 22.9963H19.8213L19.8381 22.9221C19.3989 22.8129 19.0909 22.6251 18.9151 22.3583H18.9165ZM13.3575 17.1878L15.7701 13.4867L16.6897 18.3081C12.4651 18.8728 13.3575 17.1878 13.3575 17.1878Z" fill="#121212"/>
<path d="M11.7726 20.3115V20.3082C11.7716 20.2866 11.7702 20.2656 11.7682 20.2445C11.7678 20.2387 11.7673 20.2325 11.7668 20.2268C11.7668 20.2239 11.7663 20.2205 11.7659 20.2177C11.7644 20.2033 11.763 20.1889 11.7611 20.1745C11.7582 20.152 11.7544 20.1295 11.7505 20.1075C11.7472 20.0888 11.7438 20.0701 11.74 20.0519C11.7381 20.0428 11.7357 20.0337 11.7333 20.0246C11.7333 20.0232 11.7328 20.0213 11.7323 20.0198C11.729 20.005 11.7251 19.9901 11.7208 19.9753C11.7208 19.9734 11.7199 19.9715 11.7194 19.9695C11.7146 19.9528 11.7098 19.936 11.7045 19.9197C11.7041 19.9178 11.7036 19.9154 11.7026 19.9135C11.7021 19.9125 11.7017 19.9111 11.7017 19.9101C11.6969 19.8963 11.6926 19.8828 11.6873 19.8694C11.6849 19.8618 11.682 19.8546 11.6792 19.8469C11.672 19.8469 11.6653 19.8479 11.6581 19.8484C11.6384 19.8498 11.6188 19.8512 11.5992 19.8536C11.5853 19.8551 11.5714 19.857 11.557 19.8589C11.5556 19.8589 11.5537 19.8589 11.5522 19.8589C11.5388 19.8608 11.5254 19.8632 11.5115 19.8656C11.4909 19.869 11.4708 19.8733 11.4502 19.8776C11.4344 19.8809 11.4186 19.8848 11.4033 19.8886C11.3865 19.8929 11.3697 19.8972 11.3534 19.902C11.3525 19.902 11.352 19.9025 11.3515 19.9025C11.3352 19.9073 11.319 19.9121 11.3032 19.9173C11.2864 19.9231 11.2701 19.9283 11.2538 19.9346C11.2208 19.9466 11.1887 19.9595 11.1566 19.9734C11.1245 19.9873 11.0929 20.0021 11.0618 20.0189C11.0311 20.0347 11.0004 20.0519 10.9703 20.0701C10.954 20.0802 10.9377 20.0902 10.9219 20.1008C10.9085 20.1089 10.8951 20.118 10.8821 20.1271C10.8534 20.1472 10.8251 20.1678 10.7974 20.1899C10.7701 20.2114 10.7432 20.2339 10.7169 20.2574C10.691 20.2809 10.6656 20.3053 10.6412 20.3302C10.6292 20.3427 10.6168 20.3551 10.6053 20.3681C10.5933 20.381 10.5818 20.3939 10.5703 20.4073C10.5138 20.473 10.4625 20.5438 10.418 20.6176C10.4051 20.6392 10.3926 20.6612 10.3811 20.6837C10.3687 20.7072 10.3567 20.7311 10.3457 20.7551C10.3691 20.6689 10.3921 20.5755 10.4161 20.4897C10.3739 20.5314 10.3342 20.575 10.2959 20.6205C10.2772 20.6435 10.2585 20.6665 10.2403 20.6904C10.2312 20.7024 10.2226 20.7139 10.2135 20.7263C10.1962 20.7503 10.179 20.7747 10.1627 20.7996C10.0698 20.9409 9.99506 21.0942 9.94333 21.2542C9.93663 21.2733 9.93088 21.293 9.92513 21.3126C9.92274 21.3207 9.92082 21.3289 9.91842 21.3366C9.91268 21.3581 9.90693 21.3797 9.90214 21.4012C9.86861 21.5473 9.85424 21.6967 9.86238 21.8457C9.85137 21.7657 9.81018 21.6876 9.76036 21.6239C9.76276 21.6354 9.76515 21.6469 9.76707 21.6584C9.7709 21.6805 9.77282 21.703 9.77425 21.725C9.78766 21.9631 9.66888 22.1992 9.55967 22.4181C9.53428 22.4693 9.50554 22.5192 9.47633 22.569C9.46196 22.5939 9.44759 22.6188 9.43322 22.6432C9.42603 22.6557 9.41933 22.6686 9.41214 22.6811C9.39873 22.7055 9.3858 22.7299 9.37335 22.7548C9.3676 22.7673 9.36185 22.7797 9.3561 22.7927C9.33934 22.83 9.32593 22.8669 9.31635 22.9047C9.30437 22.9522 9.29862 22.9996 9.30246 23.0479C9.30294 23.0551 9.30341 23.0623 9.30485 23.0695C9.30485 23.0714 9.30485 23.0738 9.30485 23.0757C9.30868 23.1035 9.31587 23.1313 9.32641 23.1591L9.33694 23.1658L9.25695 23.2884C9.23827 23.2798 9.21816 23.2731 9.19756 23.2678C9.11278 23.2462 9.02321 23.2812 8.97627 23.3555C8.76839 23.6826 8.2032 24.5663 7.95317 24.9011C7.66866 25.2829 7.39995 25.5875 7.14609 25.816C6.61681 26.294 5.90553 26.6365 5.01367 26.8434L4.98206 26.9991H10.1507L10.1819 26.8434C9.70384 26.7399 9.34604 26.6053 9.10751 26.4386C8.8685 26.2729 8.74971 26.0339 8.74971 25.7226C8.74971 25.565 8.78803 25.3691 8.86467 25.1349C8.97723 24.7905 9.17265 24.3637 9.45094 23.8536C9.48495 23.7913 9.50075 23.7243 9.50075 23.6591C9.50075 23.5988 9.48734 23.5399 9.46196 23.4867L9.57164 23.3191L9.58362 23.3267C9.62864 23.3243 9.67031 23.3147 9.70911 23.2999C9.71869 23.2961 9.72827 23.2922 9.73785 23.2879C9.74312 23.2855 9.74791 23.2826 9.75318 23.2803C9.76228 23.2755 9.77186 23.2702 9.78096 23.2649C9.79197 23.2582 9.80347 23.2506 9.81401 23.2429C9.83221 23.23 9.84993 23.2161 9.8667 23.2012C9.88633 23.184 9.90549 23.1653 9.92417 23.1457C9.93327 23.1356 9.94285 23.1251 9.95243 23.1145C9.9668 23.0978 9.98117 23.081 9.99554 23.0633C10.0118 23.0432 10.0281 23.0221 10.0449 23.0005C10.0794 22.9555 10.1134 22.909 10.1488 22.8645C10.1598 22.8506 10.1708 22.8372 10.1819 22.8238C10.2154 22.7836 10.2494 22.7424 10.2839 22.7021C10.3189 22.6619 10.3548 22.6221 10.3921 22.5843C10.5167 22.4578 10.6565 22.3534 10.8271 22.3199C10.7571 22.3022 10.6795 22.295 10.6091 22.3094C10.601 22.3108 10.5933 22.3127 10.5856 22.3151C10.5852 22.3151 10.5842 22.3156 10.5837 22.3156H10.5828C10.612 22.3046 10.6407 22.2926 10.6695 22.2801C10.7121 22.261 10.7538 22.2399 10.795 22.2169C11.1619 22.0105 11.4492 21.656 11.6006 21.2623C11.5484 21.3045 11.4928 21.3485 11.4392 21.3912C11.4215 21.4055 11.4037 21.4194 11.3865 21.4333C11.4009 21.417 11.4148 21.4007 11.4282 21.384C11.4315 21.3797 11.4349 21.3753 11.4382 21.371C11.4488 21.3581 11.4583 21.3452 11.4679 21.3318C11.4718 21.3275 11.4746 21.3231 11.478 21.3188C11.49 21.3021 11.5015 21.2848 11.5134 21.2671C11.5139 21.2661 11.5149 21.2647 11.5153 21.2637C11.5273 21.2451 11.5393 21.2259 11.5503 21.2063C11.5589 21.1924 11.5671 21.1785 11.5743 21.1641C11.581 21.1531 11.5867 21.1416 11.5925 21.1306C11.6006 21.1148 11.6083 21.099 11.6159 21.0832L11.6174 21.0803C11.6174 21.0803 11.6188 21.0774 11.6193 21.076C11.6265 21.0607 11.6337 21.0449 11.6404 21.0286C11.6432 21.0223 11.6456 21.0166 11.648 21.0104C11.6562 20.9912 11.6638 20.972 11.6705 20.9529C11.6725 20.9476 11.6744 20.9428 11.6763 20.9376C11.6782 20.9328 11.6796 20.9285 11.6811 20.9237C11.6868 20.9074 11.6921 20.8911 11.6974 20.8748C11.7036 20.8561 11.7089 20.837 11.7141 20.8178C11.717 20.8073 11.7199 20.7972 11.7223 20.7872C11.7242 20.7795 11.7261 20.7714 11.728 20.7637C11.7304 20.7546 11.7323 20.7455 11.7347 20.7359C11.74 20.712 11.7448 20.6885 11.7486 20.6645L11.75 20.6559C11.7563 20.6205 11.7611 20.5846 11.7649 20.5482C11.7659 20.5395 11.7668 20.5304 11.7678 20.5213C11.7687 20.5122 11.7692 20.5031 11.7697 20.494C11.7706 20.4797 11.7716 20.4653 11.7726 20.4504V20.449C11.7735 20.4284 11.774 20.4073 11.774 20.3863V20.3728C11.774 20.3522 11.7735 20.3317 11.7726 20.3111V20.3115ZM10.9693 20.199C10.7964 20.3489 10.6412 20.5185 10.5071 20.7048C10.6211 20.505 10.7815 20.3312 10.9693 20.199ZM10.1273 21.065C10.0698 21.2115 10.0147 21.373 9.96968 21.5238C9.96872 21.5257 9.96824 21.5277 9.96776 21.5296C9.99123 21.3667 10.0458 21.2077 10.1273 21.065ZM9.73162 22.3242C9.73162 22.3242 9.73066 22.3271 9.72971 22.3285C9.69905 22.4119 9.64828 22.4861 9.58889 22.5508C9.63008 22.4703 9.67941 22.398 9.73162 22.3242ZM10.4396 21.9444C10.6225 21.6512 10.9008 21.2058 11.08 20.9155C10.8884 21.2709 10.6738 21.6148 10.4396 21.9444ZM10.1574 22.271C10.0324 22.4703 9.90214 22.6676 9.76755 22.8621C9.71773 22.934 9.66792 23.0048 9.61763 23.0748C9.60757 23.0896 9.59655 23.1045 9.58601 23.1193C9.55201 23.1667 9.51752 23.2142 9.48255 23.2611L9.43082 23.2276C9.46004 23.1768 9.48974 23.126 9.51943 23.0757C9.68995 22.7864 9.87532 22.4871 10.0645 22.2102C10.2489 21.9415 10.737 21.2187 10.9252 20.94C11.1178 20.6588 11.3089 20.3762 11.5024 20.0955L11.512 20.1017C11.1001 20.7718 10.5746 21.599 10.1574 22.271Z" fill="#121212"/>
</svg>
